<svg width="121" height="70" viewBox="0 0 121 70" fill="none" xmlns="http://www.w3.org/2000/svg">
<path d="M1.76562 21.3281C1.11979 20.8385 0.963542 20.3438 1.29688 19.8438L2.5 18.0312C2.89583 17.4375 3.47396 17.4062 4.23438 17.9375C4.81771 18.3438 5.57812 18.7656 6.51562 19.2031C7.46354 19.6302 8.45833 19.8438 9.5 19.8438C10.2292 19.8438 10.9323 19.7604 11.6094 19.5938C12.2865 19.4271 12.8021 19.1042 13.1562 18.625C13.5104 18.1458 13.6875 17.5781 13.6875 16.9219C13.6875 16.4531 13.6094 16.0417 13.4531 15.6875C13.2969 15.3333 13.0417 15.0417 12.6875 14.8125C12.3333 14.5833 11.9688 14.3906 11.5938 14.2344C10.9375 13.9635 10.1094 13.6979 9.10938 13.4375C8.11979 13.1667 7.14062 12.8438 6.17188 12.4688C5.30729 12.1354 4.51562 11.6771 3.79688 11.0938C3.07812 10.5104 2.52083 9.85417 2.125 9.125C1.72917 8.39583 1.53125 7.42188 1.53125 6.20312C1.53125 4.75521 2 3.51562 2.9375 2.48438C3.875 1.45312 4.95312 0.791667 6.17188 0.5C7.39062 0.208333 8.61979 0.0625 9.85938 0.0625C11.0885 0.0625 12.3542 0.25 13.6562 0.625C14.9688 1 15.9583 1.46875 16.625 2.03125C17.2812 2.58333 17.4427 3.08333 17.1094 3.53125L15.8438 5.23438C15.4167 5.81771 14.8438 5.86458 14.125 5.375C13.6667 5.0625 13.0365 4.71354 12.2344 4.32812C11.4427 3.94271 10.6146 3.75 9.75 3.75C9.13542 3.75 8.56771 3.80208 8.04688 3.90625C7.53646 4.01042 7.08333 4.26042 6.6875 4.65625C6.29167 5.05208 6.09375 5.54167 6.09375 6.125C6.09375 6.6875 6.23958 7.14583 6.53125 7.5C6.82292 7.84375 7.14583 8.10417 7.5 8.28125C7.85417 8.44792 8.21354 8.58854 8.57812 8.70312C9.70312 9.06771 10.7083 9.39062 11.5938 9.67188C12.4792 9.94271 13.2969 10.2448 14.0469 10.5781C15.0885 11.0469 15.8854 11.5156 16.4375 11.9844C16.9896 12.4531 17.4427 13.0938 17.7969 13.9062C18.1615 14.7188 18.3438 15.6875 18.3438 16.8125C18.3438 18.4792 17.8125 19.8594 16.75 20.9531C15.6875 22.0365 14.5052 22.7344 13.2031 23.0469C11.9115 23.3698 10.651 23.5312 9.42188 23.5312C7.60938 23.5312 6.13542 23.3542 5 23C3.86458 22.6562 2.78646 22.099 1.76562 21.3281ZM23.0312 23C22.3021 23 21.9375 22.6094 21.9375 21.8281V1.76562C21.9375 0.984375 22.3021 0.59375 23.0312 0.59375H36.4375C37.2188 0.59375 37.6094 0.932292 37.6094 1.60938V3.45312C37.6094 4.13021 37.2188 4.46875 36.4375 4.46875H26.5V9.4375H35.6094C36.3906 9.4375 36.7812 9.77604 36.7812 10.4531V12.2969C36.7812 12.974 36.3906 13.3125 35.6094 13.3125H26.5V19.125H36.9375C37.7188 19.125 38.1094 19.4635 38.1094 20.1406V21.9844C38.1094 22.6615 37.7188 23 36.9375 23H23.0312ZM43.0312 23C42.3021 23 41.9375 22.6094 41.9375 21.8281V1.76562C41.9375 0.984375 42.3021 0.59375 43.0312 0.59375H56.4375C57.2188 0.59375 57.6094 0.932292 57.6094 1.60938V3.45312C57.6094 4.13021 57.2188 4.46875 56.4375 4.46875H46.5V9.4375H55.6094C56.3906 9.4375 56.7812 9.77604 56.7812 10.4531V12.2969C56.7812 12.974 56.3906 13.3125 55.6094 13.3125H46.5V19.125H56.9375C57.7188 19.125 58.1094 19.4635 58.1094 20.1406V21.9844C58.1094 22.6615 57.7188 23 56.9375 23H43.0312ZM61.1406 4.59375C60.3594 4.59375 59.9688 4.25521 59.9688 3.57812V1.60938C59.9688 0.932292 60.3594 0.59375 61.1406 0.59375H77.2031C77.9844 0.59375 78.375 0.932292 78.375 1.60938V3.57812C78.375 4.25521 77.9844 4.59375 77.2031 4.59375H71.4531V22.1406C71.4531 22.7135 71.1927 23 70.6719 23H67.6719C67.151 23 66.8906 22.7135 66.8906 22.1406V4.59375H61.1406ZM82.5 23C81.7708 23 81.4062 22.6094 81.4062 21.8281V1.76562C81.4062 0.984375 81.7708 0.59375 82.5 0.59375H89.7344C92.9531 0.59375 95.3021 1.09375 96.7812 2.09375C98.2604 3.08333 99 4.69792 99 6.9375C99 8.60417 98.401 9.93229 97.2031 10.9219C96.0052 11.9115 94.4844 12.5677 92.6406 12.8906V12.9219C93.6406 13.2969 94.3958 13.8177 94.9062 14.4844C95.4167 15.151 95.8333 15.7344 96.1562 16.2344L99.5938 21.6562C100.167 22.5521 99.9688 23 99 23H96.2812C95.7083 23 95.2396 22.6927 94.875 22.0781L91.7188 16.8125C91.375 16.25 90.7448 15.6354 89.8281 14.9688C88.9219 14.2917 88.0208 13.9531 87.125 13.9531H85.9688V21.8281C85.9688 22.6094 85.6042 23 84.875 23H82.5ZM85.9688 10.0781H88.7656C90.849 10.0781 92.3281 9.84375 93.2031 9.375C94.0885 8.89583 94.5312 8.14062 94.5312 7.10938C94.5312 5.98438 94.1042 5.25521 93.25 4.92188C92.4062 4.57812 91.1615 4.40625 89.5156 4.40625H85.9688V10.0781ZM103.719 13.6719V1.45312C103.719 0.880208 104.083 0.59375 104.812 0.59375H107.188C107.917 0.59375 108.281 0.880208 108.281 1.45312V13.5156C108.281 16.3281 108.693 18.0885 109.516 18.7969C110.349 19.4948 111.286 19.8438 112.328 19.8438C113.37 19.8438 114.302 19.4948 115.125 18.7969C115.958 18.0885 116.375 16.3281 116.375 13.5156V1.45312C116.375 0.880208 116.74 0.59375 117.469 0.59375H119.844C120.573 0.59375 120.938 0.880208 120.938 1.45312V13.6719C120.938 17.3177 120.167 19.875 118.625 21.3438C117.083 22.8021 114.984 23.5312 112.328 23.5312C109.672 23.5312 107.573 22.8021 106.031 21.3438C104.49 19.875 103.719 17.3177 103.719 13.6719ZM1.76562 67.3281C1.11979 66.8385 0.963542 66.3438 1.29688 65.8438L2.5 64.0312C2.89583 63.4375 3.47396 63.4062 4.23438 63.9375C4.81771 64.3438 5.57812 64.7656 6.51562 65.2031C7.46354 65.6302 8.45833 65.8438 9.5 65.8438C10.2292 65.8438 10.9323 65.7604 11.6094 65.5938C12.2865 65.4271 12.8021 65.1042 13.1562 64.625C13.5104 64.1458 13.6875 63.5781 13.6875 62.9219C13.6875 62.4531 13.6094 62.0417 13.4531 61.6875C13.2969 61.3333 13.0417 61.0417 12.6875 60.8125C12.3333 60.5833 11.9688 60.3906 11.5938 60.2344C10.9375 59.9635 10.1094 59.6979 9.10938 59.4375C8.11979 59.1667 7.14062 58.8438 6.17188 58.4688C5.30729 58.1354 4.51562 57.6771 3.79688 57.0938C3.07812 56.5104 2.52083 55.8542 2.125 55.125C1.72917 54.3958 1.53125 53.4219 1.53125 52.2031C1.53125 50.7552 2 49.5156 2.9375 48.4844C3.875 47.4531 4.95312 46.7917 6.17188 46.5C7.39062 46.2083 8.61979 46.0625 9.85938 46.0625C11.0885 46.0625 12.3542 46.25 13.6562 46.625C14.9688 47 15.9583 47.4688 16.625 48.0312C17.2812 48.5833 17.4427 49.0833 17.1094 49.5312L15.8438 51.2344C15.4167 51.8177 14.8438 51.8646 14.125 51.375C13.6667 51.0625 13.0365 50.7135 12.2344 50.3281C11.4427 49.9427 10.6146 49.75 9.75 49.75C9.13542 49.75 8.56771 49.8021 8.04688 49.9062C7.53646 50.0104 7.08333 50.2604 6.6875 50.6562C6.29167 51.0521 6.09375 51.5417 6.09375 52.125C6.09375 52.6875 6.23958 53.1458 6.53125 53.5C6.82292 53.8438 7.14583 54.1042 7.5 54.2812C7.85417 54.4479 8.21354 54.5885 8.57812 54.7031C9.70312 55.0677 10.7083 55.3906 11.5938 55.6719C12.4792 55.9427 13.2969 56.2448 14.0469 56.5781C15.0885 57.0469 15.8854 57.5156 16.4375 57.9844C16.9896 58.4531 17.4427 59.0938 17.7969 59.9062C18.1615 60.7188 18.3438 61.6875 18.3438 62.8125C18.3438 64.4792 17.8125 65.8594 16.75 66.9531C15.6875 68.0365 14.5052 68.7344 13.2031 69.0469C11.9115 69.3698 10.651 69.5312 9.42188 69.5312C7.60938 69.5312 6.13542 69.3542 5 69C3.86458 68.6562 2.78646 68.099 1.76562 67.3281ZM21.1406 50.5938C20.3594 50.5938 19.9688 50.2552 19.9688 49.5781V47.6094C19.9688 46.9323 20.3594 46.5938 21.1406 46.5938H37.2031C37.9844 46.5938 38.375 46.9323 38.375 47.6094V49.5781C38.375 50.2552 37.9844 50.5938 37.2031 50.5938H31.4531V68.1406C31.4531 68.7135 31.1927 69 30.6719 69H27.6719C27.151 69 26.8906 68.7135 26.8906 68.1406V50.5938H21.1406ZM41.4062 59.6719V47.4531C41.4062 46.8802 41.7708 46.5938 42.5 46.5938H44.875C45.6042 46.5938 45.9688 46.8802 45.9688 47.4531V59.5156C45.9688 62.3281 46.3802 64.0885 47.2031 64.7969C48.0365 65.4948 48.974 65.8438 50.0156 65.8438C51.0573 65.8438 51.9896 65.4948 52.8125 64.7969C53.6458 64.0885 54.0625 62.3281 54.0625 59.5156V47.4531C54.0625 46.8802 54.4271 46.5938 55.1562 46.5938H57.5312C58.2604 46.5938 58.625 46.8802 58.625 47.4531V59.6719C58.625 63.3177 57.8542 65.875 56.3125 67.3438C54.7708 68.8021 52.6719 69.5312 50.0156 69.5312C47.3594 69.5312 45.2604 68.8021 43.7188 67.3438C42.1771 65.875 41.4062 63.3177 41.4062 59.6719ZM64.7188 69C63.9896 69 63.625 68.6094 63.625 67.8281V47.7656C63.625 46.9844 63.9896 46.5938 64.7188 46.5938H70.1719C74.9635 46.5938 78.2031 47.5625 79.8906 49.5C81.5885 51.4375 82.4375 54.1927 82.4375 57.7656C82.4375 61.3385 81.5885 64.1042 79.8906 66.0625C78.2031 68.0208 74.9635 69 70.1719 69H64.7188ZM68.1875 65.125H69.875C73.1042 65.125 75.1927 64.526 76.1406 63.3281C77.0885 62.1198 77.5625 60.2656 77.5625 57.7656C77.5625 55.2656 77.0885 53.4219 76.1406 52.2344C75.1927 51.0365 73.1042 50.4375 69.875 50.4375H68.1875V65.125ZM87.375 69C86.6458 69 86.2812 68.6094 86.2812 67.8281V47.7656C86.2812 46.9844 86.6458 46.5938 87.375 46.5938H89.75C90.4792 46.5938 90.8438 46.9844 90.8438 47.7656V67.8281C90.8438 68.6094 90.4792 69 89.75 69H87.375ZM94.6875 57.7969C94.6875 54.2031 95.6146 51.349 97.4688 49.2344C99.3229 47.1198 101.969 46.0625 105.406 46.0625C108.844 46.0625 111.49 47.1198 113.344 49.2344C115.198 51.349 116.125 54.2031 116.125 57.7969C116.125 61.3906 115.198 64.2448 113.344 66.3594C111.49 68.474 108.844 69.5312 105.406 69.5312C101.969 69.5312 99.3229 68.474 97.4688 66.3594C95.6146 64.2448 94.6875 61.3906 94.6875 57.7969ZM99.5625 57.7969C99.5625 60.401 100.026 62.3958 100.953 63.7812C101.891 65.1562 103.375 65.8438 105.406 65.8438C107.438 65.8438 108.917 65.1562 109.844 63.7812C110.781 62.3958 111.25 60.401 111.25 57.7969C111.25 55.1927 110.781 53.2031 109.844 51.8281C108.917 50.4427 107.438 49.75 105.406 49.75C103.375 49.75 101.891 50.4427 100.953 51.8281C100.026 53.2031 99.5625 55.1927 99.5625 57.7969Z" fill="#E0CB08"/>
</svg>
